<svg xmlns="http://www.w3.org/2000/svg" width="136" height="24" viewBox="0 0 136 24" fill="none">
  <path fill-rule="evenodd" clip-rule="evenodd" d="M0.348779 1.74723C0 2.43175 0 3.32783 0 5.12V18.88C0 20.6722 0 21.5683 0.348779 22.2528C0.655574 22.8549 1.14511 23.3444 1.74723 23.6512C2.43175 24 3.32783 24 5.12 24H18.88C20.6722 24 21.5683 24 22.2528 23.6512C22.8549 23.3444 23.3444 22.8549 23.6512 22.2528C24 21.5683 24 20.6722 24 18.88V5.12C24 3.32783 24 2.43175 23.6512 1.74723C23.3444 1.14511 22.8549 0.655574 22.2528 0.348779C21.5683 0 20.6722 0 18.88 0H5.12C3.32783 0 2.43175 0 1.74723 0.348779C1.14511 0.655574 0.655574 1.14511 0.348779 1.74723ZM21.0001 10.2V4.8C21.0001 3.80595 20.1941 3 19.2001 3H4.80006C3.80601 3 3.00006 3.80595 3.00006 4.8V19.2C3.00006 20.194 3.80601 21 4.80006 21H10.2001C11.1941 21 12.0001 20.194 12.0001 19.2V13.8C12.0001 12.806 12.806 12 13.8001 12H19.2001C20.1941 12 21.0001 11.1941 21.0001 10.2Z" fill="#F7F7F7"/>
  <path d="M28.5444 2.95197H36.9467C39.2168 2.95197 40.8868 3.58328 42.0352 4.68779C43.2354 5.81874 43.914 7.42311 43.914 9.31659C43.914 12.9197 41.435 15.4709 37.5993 15.4709H33.2416V21.7567H28.5447V2.95197H28.5444ZM36.6596 11.7888C38.3296 11.7888 39.2691 10.7893 39.2691 9.29015C39.2691 7.79104 38.3036 6.87062 36.6596 6.87062H33.2411V11.7888H36.6596Z" fill="#F7F7F7"/>
  <path d="M45.2968 8.29096H49.3676V10.395H49.4458C50.3853 8.79059 51.4811 8.08044 53.0989 8.08044C53.4904 8.08044 53.7513 8.10664 53.9339 8.1857V11.8676H53.8295C51.22 11.4995 49.55 12.7881 49.55 15.7075V21.7566H45.2966V8.29096H45.2968Z" fill="#F7F7F7"/>
  <path d="M55.2906 2.95197H59.544V6.42362H55.2906V2.95197ZM55.2906 8.29091H59.544V21.7567H55.2906V8.29091Z" fill="#F7F7F7"/>
  <path d="M61.5792 8.29067H65.676V10.1318H65.7542C66.7459 8.68527 68.0244 7.8963 69.877 7.8963C72.7995 7.8963 74.5218 10.0003 74.5218 12.9985V21.7565H70.2683V13.8663C70.2683 12.446 69.5637 11.473 68.1808 11.473C66.7979 11.473 65.8322 12.6566 65.8322 14.3133V21.7563H61.5787V8.29067H61.5792Z" fill="#F7F7F7"/>
  <path d="M77.2354 18.2061V10.9734H75.461V8.29072H77.2354V4.03009H81.3845V8.29072H83.8113V10.9734H81.3845V17.2854C81.3845 18.3375 81.9586 18.6004 82.8718 18.6004C83.2371 18.6004 83.6546 18.5742 83.8113 18.5742V21.7039C83.446 21.8092 82.637 21.9144 81.4889 21.9144C79.0099 21.9144 77.2354 21.099 77.2354 18.2061Z" fill="#F7F7F7"/>
  <path d="M85.3509 8.29096H89.4215V10.395H89.4997C90.4392 8.79059 91.535 8.08044 93.1528 8.08044C93.5443 8.08044 93.8052 8.10664 93.9878 8.1857V11.8676H93.8834C91.2739 11.4995 89.6039 12.7881 89.6039 15.7075V21.7566H85.3505V8.29096H85.3509Z" fill="#F7F7F7"/>
  <path d="M94.4837 15.0504C94.4837 11 97.354 7.92297 101.633 7.92297C105.913 7.92297 108.757 11 108.757 15.0504C108.757 19.1007 105.939 22.1778 101.633 22.1778C97.3278 22.1778 94.4837 19.1007 94.4837 15.0504ZM104.452 15.0504C104.452 12.6044 103.46 10.9476 101.607 10.9476C99.7548 10.9476 98.7894 12.6046 98.7894 15.0504C98.7894 17.4961 99.7548 19.1269 101.607 19.1269C103.46 19.1269 104.452 17.4963 104.452 15.0504Z" fill="#F7F7F7"/>
  <path d="M108.575 8.28973H112.959L114.785 14.365C115.177 15.7062 115.516 17.0739 115.516 17.0739H115.568C115.568 17.0739 115.907 15.7062 116.299 14.365L118.151 8.28973H122.405L117.786 21.7556H113.194L108.575 8.28973Z" fill="#F7F7F7"/>
  <path d="M122.222 14.9975C122.222 10.9736 125.014 7.8963 129.085 7.8963C130.99 7.8963 132.503 8.52762 133.651 9.5795C135.243 11.0524 136.026 13.3931 136 16.1282H126.397C126.658 17.9429 127.649 19.0738 129.398 19.0738C130.52 19.0738 131.251 18.5742 131.616 17.7326H135.765C135.478 18.9424 134.695 20.0995 133.521 20.9149C132.399 21.7039 131.042 22.1511 129.346 22.1511C124.936 22.1511 122.222 19.074 122.222 14.9975H122.222ZM131.694 13.5772C131.538 11.9728 130.546 10.9472 129.163 10.9472C127.545 10.9472 126.71 11.9728 126.423 13.5772H131.694Z" fill="#F7F7F7"/>
</svg>